<?xml version="1.0" standalone="no"?>
<!DOCTYPE svg PUBLIC "-//W3C//DTD SVG 1.1//EN" "http://www.w3.org/Graphics/SVG/1.1/DTD/svg11.dtd">
<svg version="1.1" xmlns="http://www.w3.org/2000/svg" viewBox="0 0 632 367.1999816894531" width="632" height="367.1999816894531"><!-- svg-source:excalidraw --><metadata></metadata><defs><style class="style-fonts">
      </style></defs><rect x="0" y="0" width="632" height="367.1999816894531" fill="#ffffff"></rect><g transform="translate(10 344.3999938964844) rotate(0 128.39999389648438 -167.1999969482422)" stroke="none"><path fill="#1e1e1e" d="M -2.36,-2.10 Q -2.36,-2.10 1.36,-6.19 5.10,-10.28 7.52,-13.36 9.94,-16.44 12.07,-19.72 14.20,-23.00 17.29,-27.24 20.38,-31.47 23.26,-35.93 26.13,-40.39 29.44,-45.74 32.75,-51.09 36.45,-57.47 40.15,-63.86 43.78,-70.89 47.40,-77.93 51.24,-86.19 55.07,-94.44 59.01,-103.02 62.95,-111.61 66.92,-120.75 70.88,-129.89 74.16,-138.78 77.43,-147.67 80.69,-156.09 83.94,-164.52 86.44,-172.17 88.95,-179.81 91.41,-187.02 93.87,-194.22 95.82,-201.12 97.76,-208.01 99.27,-214.37 100.78,-220.73 102.35,-227.14 103.92,-233.55 105.27,-239.47 106.63,-245.40 107.42,-250.15 108.21,-254.90 108.78,-259.20 109.34,-263.51 109.42,-266.90 109.50,-270.29 109.38,-272.65 109.25,-275.01 109.02,-277.01 108.79,-279.01 108.86,-279.49 108.93,-279.96 109.12,-280.40 109.31,-280.85 109.59,-281.23 109.88,-281.62 110.25,-281.92 110.62,-282.23 111.05,-282.44 111.49,-282.65 111.96,-282.74 112.43,-282.84 112.91,-282.83 113.39,-282.81 113.85,-282.68 114.31,-282.55 114.73,-282.31 115.15,-282.07 115.49,-281.74 115.84,-281.41 116.10,-281.00 116.36,-280.60 116.51,-280.14 116.67,-279.69 116.71,-279.21 116.75,-278.73 116.88,-274.01 117.01,-269.30 117.13,-265.59 117.26,-261.89 117.17,-256.73 117.09,-251.57 117.45,-245.84 117.81,-240.11 118.15,-232.99 118.50,-225.86 118.62,-218.42 118.73,-210.98 118.99,-203.03 119.25,-195.08 119.57,-186.18 119.89,-177.28 120.93,-168.31 121.97,-159.34 122.64,-150.59 123.31,-141.85 124.27,-133.61 125.23,-125.37 126.10,-117.47 126.97,-109.56 128.46,-102.18 129.96,-94.81 131.51,-88.45 133.06,-82.10 134.85,-76.47 136.63,-70.84 138.73,-66.26 140.82,-61.68 142.70,-58.70 144.58,-55.72 146.54,-53.49 148.50,-51.26 150.11,-49.71 151.72,-48.16 153.99,-46.90 156.27,-45.64 158.59,-45.72 160.91,-45.81 164.44,-47.17 167.96,-48.54 170.47,-50.26 172.97,-51.99 176.31,-54.40 179.65,-56.81 182.57,-59.89 185.49,-62.97 189.17,-67.08 192.85,-71.19 196.45,-76.03 200.05,-80.87 203.68,-86.13 207.32,-91.40 210.67,-97.43 214.02,-103.47 217.55,-110.19 221.07,-116.91 224.63,-124.54 228.19,-132.18 231.30,-140.19 234.41,-148.20 236.88,-155.93 239.34,-163.66 241.31,-170.62 243.29,-177.58 245.27,-186.01 247.25,-194.45 248.78,-202.37 250.31,-210.30 251.18,-217.51 252.06,-224.72 252.66,-231.23 253.27,-237.75 253.52,-244.83 253.78,-251.91 253.89,-257.46 254.00,-263.01 254.05,-268.58 254.09,-274.16 254.11,-279.75 254.13,-285.33 253.69,-291.52 253.24,-297.71 252.82,-302.43 252.40,-307.15 252.02,-310.35 251.64,-313.54 250.94,-316.02 250.24,-318.51 249.41,-320.89 248.59,-323.26 248.08,-325.45 247.57,-327.65 246.73,-330.64 245.88,-333.63 245.88,-334.37 245.87,-335.11 246.10,-335.81 246.34,-336.52 246.78,-337.11 247.23,-337.70 247.84,-338.12 248.45,-338.54 249.16,-338.74 249.87,-338.94 250.61,-338.91 251.35,-338.87 252.04,-338.60 252.73,-338.33 253.30,-337.86 253.87,-337.38 254.25,-336.75 254.64,-336.12 254.80,-335.39 254.97,-334.67 254.89,-333.93 254.81,-333.20 254.51,-332.52 254.20,-331.85 253.69,-331.31 253.19,-330.77 252.54,-330.42 251.88,-330.06 251.15,-329.94 250.42,-329.82 249.69,-329.93 248.96,-330.05 248.30,-330.39 247.65,-330.73 247.13,-331.27 246.62,-331.80 246.31,-332.47 245.99,-333.14 245.91,-333.88 245.82,-334.62 245.98,-335.34 246.13,-336.06 246.51,-336.70 246.89,-337.34 247.45,-337.82 248.01,-338.30 248.70,-338.58 249.38,-338.86 250.12,-338.91 250.86,-338.95 251.58,-338.76 252.29,-338.56 252.91,-338.15 253.52,-337.74 253.98,-337.15 254.43,-336.56 254.67,-335.86 254.91,-335.16 254.91,-335.16 254.91,-335.16 255.06,-333.74 255.21,-332.31 255.52,-328.76 255.84,-325.22 256.39,-322.52 256.94,-319.83 257.31,-316.86 257.68,-313.89 257.66,-310.75 257.64,-307.62 258.06,-302.85 258.49,-298.09 258.94,-291.70 259.40,-285.32 259.38,-279.71 259.36,-274.11 259.31,-268.51 259.27,-262.91 259.16,-257.32 259.05,-251.72 258.79,-244.49 258.53,-237.26 257.93,-230.67 257.32,-224.08 256.43,-216.69 255.54,-209.30 254.00,-201.26 252.46,-193.23 250.47,-184.67 248.47,-176.12 246.50,-169.07 244.52,-162.02 242.04,-154.12 239.55,-146.22 236.41,-138.03 233.28,-129.83 229.72,-122.05 226.16,-114.27 222.69,-107.46 219.21,-100.64 215.82,-94.30 212.44,-87.97 208.88,-82.53 205.33,-77.09 201.75,-71.89 198.16,-66.70 194.69,-62.35 191.21,-58.00 188.13,-54.17 185.04,-50.34 181.81,-47.30 178.58,-44.27 175.38,-41.85 172.18,-39.43 169.18,-38.17 166.18,-36.92 161.13,-36.85 156.08,-36.77 154.04,-37.46 152.01,-38.15 149.11,-40.77 146.21,-43.40 144.80,-45.35 143.39,-47.30 141.49,-50.06 139.59,-52.81 137.80,-56.15 136.01,-59.49 133.80,-64.36 131.59,-69.23 129.74,-75.03 127.90,-80.83 126.31,-87.29 124.73,-93.74 123.18,-101.36 121.63,-108.97 120.74,-116.85 119.86,-124.73 118.86,-133.08 117.85,-141.42 117.15,-150.05 116.45,-158.68 115.34,-167.86 114.23,-177.04 113.83,-185.95 113.43,-194.86 113.06,-202.84 112.70,-210.83 112.44,-218.15 112.18,-225.46 111.64,-232.50 111.10,-239.53 110.45,-245.48 109.81,-251.43 109.53,-256.42 109.25,-261.40 108.91,-265.35 108.57,-269.29 108.68,-274.15 108.79,-279.01 108.86,-279.49 108.93,-279.96 109.12,-280.40 109.31,-280.85 109.59,-281.23 109.88,-281.62 110.25,-281.92 110.62,-282.23 111.05,-282.44 111.49,-282.65 111.96,-282.74 112.43,-282.84 112.91,-282.83 113.39,-282.81 113.85,-282.68 114.31,-282.55 114.73,-282.31 115.14,-282.07 115.49,-281.74 115.84,-281.41 116.10,-281.00 116.36,-280.60 116.51,-280.14 116.67,-279.69 116.71,-279.21 116.75,-278.73 116.39,-276.72 116.03,-274.71 115.70,-272.30 115.37,-269.88 114.96,-266.35 114.55,-262.82 113.97,-258.42 113.40,-254.03 112.57,-249.13 111.75,-244.23 110.39,-238.26 109.03,-232.30 107.47,-225.91 105.90,-219.51 104.36,-213.05 102.83,-206.58 100.84,-199.55 98.86,-192.52 96.41,-185.34 93.97,-178.17 91.42,-170.39 88.87,-162.62 85.64,-154.23 82.40,-145.84 79.08,-136.81 75.76,-127.78 71.78,-118.58 67.80,-109.38 63.87,-100.78 59.94,-92.19 56.08,-83.82 52.22,-75.46 48.56,-68.30 44.89,-61.13 41.19,-54.66 37.49,-48.19 34.20,-42.77 30.92,-37.35 28.02,-32.72 25.12,-28.08 22.19,-23.90 19.27,-19.72 16.98,-16.20 14.70,-12.67 12.16,-9.47 9.61,-6.27 5.99,-2.08 2.36,2.10 2.08,2.35 1.79,2.61 1.45,2.78 1.11,2.96 0.74,3.05 0.37,3.14 -0.00,3.14 -0.38,3.14 -0.75,3.05 -1.12,2.96 -1.46,2.78 -1.80,2.60 -2.09,2.35 -2.37,2.09 -2.59,1.78 -2.81,1.46 -2.94,1.11 -3.07,0.75 -3.12,0.37 -3.17,-0.00 -3.12,-0.38 -3.07,-0.76 -2.94,-1.12 -2.80,-1.47 -2.58,-1.79 -2.36,-2.10 -2.36,-2.10 L -2.36,-2.10 Z"></path></g><g transform="translate(233.20001220703125 224.39999389648438) rotate(0 88.39999389648438 -5.600006103515625)" stroke="none"><path fill="#1e1e1e" d="M -3.49,-1.49 Q -3.49,-1.49 -2.95,-3.17 -2.42,-4.86 -1.14,-7.09 0.12,-9.32 1.45,-11.66 2.79,-14.00 4.91,-16.95 7.04,-19.89 9.07,-22.85 11.10,-25.80 13.46,-29.09 15.83,-32.38 18.52,-36.23 21.21,-40.08 23.52,-43.71 25.84,-47.35 27.98,-50.78 30.12,-54.21 32.16,-57.36 34.20,-60.50 35.31,-62.91 36.42,-65.31 37.92,-67.60 39.42,-69.89 40.42,-72.23 41.42,-74.57 41.61,-74.88 41.80,-75.18 42.11,-75.66 42.41,-76.13 42.82,-76.52 43.23,-76.91 43.72,-77.19 44.21,-77.47 44.75,-77.62 45.29,-77.78 45.86,-77.80 46.42,-77.82 46.97,-77.70 47.52,-77.59 48.03,-77.34 48.54,-77.10 48.98,-76.74 49.41,-76.38 49.75,-75.93 50.08,-75.48 50.30,-74.96 50.52,-74.44 50.61,-73.88 50.70,-73.32 50.65,-72.76 50.60,-72.20 50.42,-71.66 50.24,-71.13 51.15,-68.33 52.06,-65.53 52.18,-61.58 52.30,-57.62 51.90,-52.89 51.51,-48.16 50.78,-42.23 50.06,-36.29 48.99,-30.27 47.92,-24.24 46.97,-18.08 46.02,-11.93 44.65,-5.74 43.27,0.43 41.98,6.44 40.69,12.46 39.68,18.19 38.66,23.92 37.99,29.30 37.32,34.67 36.56,39.34 35.79,44.00 35.57,47.71 35.35,51.41 35.43,54.14 35.51,56.87 35.65,59.16 35.79,61.44 36.60,64.71 37.41,67.98 39.90,68.04 42.39,68.11 46.62,65.00 50.86,61.89 54.48,58.55 58.10,55.21 62.50,50.84 66.89,46.47 71.26,41.30 75.64,36.14 80.28,29.86 84.92,23.58 89.71,17.00 94.49,10.42 98.77,2.93 103.04,-4.54 106.73,-11.42 110.43,-18.29 113.82,-25.74 117.21,-33.19 119.80,-39.56 122.40,-45.93 124.41,-52.01 126.42,-58.10 127.49,-62.68 128.56,-67.26 128.88,-70.75 129.20,-74.24 129.18,-76.86 129.15,-79.48 128.74,-81.82 128.33,-84.17 128.41,-84.64 128.49,-85.11 128.68,-85.54 128.87,-85.98 129.16,-86.36 129.44,-86.74 129.82,-87.04 130.19,-87.34 130.62,-87.54 131.05,-87.74 131.52,-87.84 131.99,-87.93 132.46,-87.91 132.94,-87.89 133.40,-87.75 133.85,-87.62 134.26,-87.38 134.68,-87.13 135.02,-86.80 135.36,-86.47 135.61,-86.07 135.87,-85.66 136.01,-85.21 136.16,-84.76 136.20,-84.28 136.23,-83.80 135.05,-81.67 133.86,-79.53 131.83,-74.92 129.80,-70.30 128.80,-66.91 127.80,-63.51 126.28,-58.57 124.75,-53.62 123.13,-47.66 121.51,-41.70 120.33,-36.46 119.15,-31.22 118.40,-25.42 117.65,-19.63 116.83,-14.09 116.01,-8.55 115.43,-3.05 114.84,2.45 114.58,7.50 114.33,12.55 114.20,16.99 114.08,21.43 114.54,25.23 114.99,29.03 115.69,32.68 116.38,36.33 117.63,38.95 118.88,41.58 120.19,44.09 121.50,46.60 122.81,49.00 124.11,51.41 125.67,53.23 127.23,55.06 129.04,56.96 130.86,58.86 132.78,60.79 134.71,62.71 136.77,63.90 138.83,65.09 140.87,66.03 142.91,66.97 144.90,67.77 146.89,68.57 149.75,68.76 152.61,68.95 155.67,67.85 158.73,66.75 160.93,64.07 163.14,61.40 164.68,59.55 166.22,57.70 168.08,54.98 169.94,52.25 170.89,50.59 171.83,48.94 172.45,48.22 173.07,47.51 173.88,47.03 174.69,46.56 175.62,46.36 176.54,46.17 177.48,46.28 178.41,46.39 179.27,46.80 180.12,47.20 180.80,47.86 181.47,48.52 181.91,49.35 182.34,50.19 182.48,51.12 182.63,52.06 182.46,52.99 182.30,53.92 181.85,54.74 181.40,55.57 180.71,56.21 180.02,56.86 179.16,57.24 178.30,57.63 177.36,57.72 176.42,57.81 175.50,57.60 174.58,57.39 173.78,56.89 172.97,56.40 172.37,55.67 171.77,54.95 171.43,54.07 171.09,53.19 171.05,52.25 171.01,51.30 171.27,50.40 171.53,49.49 172.07,48.72 172.61,47.94 173.36,47.38 174.12,46.81 175.02,46.52 175.91,46.23 176.86,46.24 177.80,46.25 178.69,46.56 179.58,46.87 180.33,47.45 181.07,48.03 181.59,48.82 182.11,49.60 182.36,50.52 182.60,51.43 182.54,52.37 182.48,53.31 182.12,54.18 181.76,55.05 181.76,55.05 181.76,55.05 180.51,56.96 179.26,58.87 176.95,61.81 174.65,64.74 172.99,66.72 171.34,68.69 169.58,70.64 167.81,72.59 165.41,74.58 163.00,76.57 160.28,77.58 157.56,78.59 152.79,78.67 148.02,78.75 145.49,78.10 142.95,77.45 140.79,76.38 138.63,75.31 136.30,74.00 133.97,72.70 131.16,70.77 128.35,68.85 126.40,66.70 124.45,64.55 122.55,62.26 120.66,59.98 118.90,57.38 117.13,54.78 116.04,52.17 114.95,49.57 113.87,46.79 112.79,44.01 111.66,40.68 110.53,37.35 109.94,33.48 109.36,29.62 108.98,25.47 108.60,21.32 108.68,16.80 108.76,12.29 108.97,7.09 109.18,1.89 109.69,-3.72 110.21,-9.35 110.90,-14.84 111.60,-20.33 112.24,-26.42 112.87,-32.51 113.88,-37.92 114.88,-43.33 116.23,-49.44 117.59,-55.54 118.74,-60.59 119.88,-65.64 120.84,-69.52 121.79,-73.40 123.17,-76.92 124.55,-80.44 126.44,-82.30 128.33,-84.17 128.41,-84.64 128.49,-85.11 128.68,-85.54 128.87,-85.98 129.16,-86.36 129.44,-86.74 129.81,-87.04 130.19,-87.34 130.62,-87.54 131.05,-87.74 131.52,-87.84 131.99,-87.93 132.46,-87.91 132.94,-87.89 133.40,-87.75 133.85,-87.62 134.26,-87.38 134.68,-87.14 135.02,-86.80 135.36,-86.47 135.61,-86.07 135.87,-85.66 136.01,-85.21 136.16,-84.76 136.20,-84.28 136.23,-83.80 136.04,-81.39 135.85,-78.98 135.44,-76.24 135.02,-73.49 134.42,-69.77 133.81,-66.04 132.70,-61.23 131.59,-56.41 129.56,-50.14 127.52,-43.86 124.92,-37.37 122.33,-30.89 118.92,-23.24 115.52,-15.60 111.87,-8.61 108.22,-1.62 103.89,6.19 99.55,14.01 94.91,20.71 90.26,27.41 85.69,33.98 81.13,40.56 76.82,46.15 72.52,51.74 68.40,56.46 64.29,61.17 60.87,65.13 57.46,69.08 54.25,72.26 51.04,75.45 47.93,77.07 44.81,78.69 42.09,79.09 39.37,79.50 35.86,78.05 32.35,76.60 31.03,74.75 29.72,72.90 29.08,69.46 28.45,66.03 28.41,63.65 28.36,61.27 28.62,58.91 28.87,56.55 29.22,53.74 29.56,50.94 29.97,47.04 30.37,43.14 31.08,38.58 31.79,34.01 32.41,28.49 33.04,22.96 33.99,17.12 34.95,11.28 36.13,5.23 37.30,-0.82 38.49,-6.81 39.67,-12.79 40.42,-19.04 41.16,-25.28 41.91,-31.11 42.66,-36.95 42.98,-42.68 43.29,-48.42 43.17,-52.75 43.05,-57.08 42.75,-60.36 42.44,-63.65 41.94,-66.54 41.43,-69.42 41.62,-72.30 41.80,-75.18 42.11,-75.66 42.41,-76.13 42.82,-76.52 43.23,-76.91 43.72,-77.19 44.21,-77.47 44.75,-77.62 45.29,-77.78 45.86,-77.80 46.42,-77.82 46.97,-77.70 47.52,-77.59 48.03,-77.34 48.54,-77.10 48.98,-76.74 49.41,-76.38 49.75,-75.93 50.08,-75.48 50.30,-74.96 50.52,-74.44 50.61,-73.88 50.70,-73.32 50.65,-72.76 50.60,-72.20 50.42,-71.66 50.24,-71.13 49.93,-70.84 49.61,-70.55 47.69,-67.82 45.78,-65.09 44.31,-63.46 42.85,-61.82 41.30,-59.32 39.75,-56.81 37.70,-53.82 35.66,-50.82 33.60,-47.39 31.54,-43.95 29.38,-40.07 27.22,-36.20 24.80,-32.12 22.38,-28.05 20.28,-24.61 18.19,-21.16 16.23,-18.01 14.27,-14.85 12.41,-12.09 10.56,-9.33 7.87,-5.45 5.18,-1.57 4.33,-0.04 3.49,1.49 3.26,1.89 3.03,2.28 2.71,2.61 2.39,2.94 2.00,3.19 1.62,3.43 1.18,3.57 0.75,3.72 0.29,3.75 -0.16,3.79 -0.61,3.71 -1.06,3.64 -1.48,3.46 -1.90,3.28 -2.27,3.00 -2.63,2.73 -2.92,2.37 -3.21,2.02 -3.40,1.60 -3.60,1.19 -3.69,0.74 -3.78,0.29 -3.76,-0.16 -3.74,-0.61 -3.61,-1.05 -3.49,-1.49 -3.49,-1.49 L -3.49,-1.49 Z"></path></g><g transform="translate(406.79998779296875 158) rotate(0 106 85.99998474121094)" stroke="none"><path fill="#1e1e1e" d="M -4.95,0.99 Q -4.95,0.99 -5.52,-2.48 -6.09,-5.95 -6.47,-9.88 -6.85,-13.81 -7.20,-15.93 -7.55,-18.04 -7.84,-20.79 -8.14,-23.53 -6.97,-26.12 -5.81,-28.70 -3.59,-30.14 -1.38,-31.57 1.46,-32.18 4.32,-32.79 8.22,-31.73 12.12,-30.68 13.92,-28.42 15.71,-26.17 16.93,-23.62 18.15,-21.08 19.21,-17.16 20.28,-13.25 21.38,-9.46 22.48,-5.68 23.98,-0.22 25.48,5.23 27.79,11.07 30.10,16.90 32.90,23.86 35.69,30.83 39.09,38.10 42.50,45.37 45.97,52.15 49.45,58.92 54.33,67.29 59.20,75.66 64.25,83.83 69.29,91.99 73.73,99.16 78.17,106.33 82.32,112.57 86.48,118.80 90.76,124.90 95.04,130.99 98.46,135.64 101.87,140.30 105.38,144.78 108.88,149.27 111.71,152.52 114.54,155.77 117.02,158.48 119.49,161.20 122.11,163.90 124.73,166.60 127.23,168.78 129.74,170.96 132.37,172.95 135.00,174.95 138.06,176.90 141.11,178.86 143.57,180.00 146.03,181.13 149.10,182.55 152.18,183.98 154.83,184.93 157.47,185.88 159.98,186.67 162.49,187.47 164.95,187.94 167.41,188.41 169.70,188.79 171.98,189.18 174.70,190.11 177.41,191.04 181.09,191.60 184.78,192.17 186.92,192.46 189.06,192.74 191.50,193.09 193.93,193.43 196.35,193.57 198.78,193.71 201.20,193.75 203.62,193.80 206.12,193.15 208.62,192.50 208.16,190.43 207.70,188.35 207.67,187.38 207.64,186.41 207.92,185.48 208.21,184.55 208.77,183.76 209.33,182.97 210.12,182.40 210.91,181.83 211.83,181.54 212.76,181.25 213.73,181.27 214.70,181.29 215.62,181.63 216.53,181.96 217.29,182.56 218.05,183.17 218.57,183.98 219.10,184.80 219.34,185.74 219.58,186.68 219.50,187.65 219.43,188.62 219.05,189.52 218.67,190.41 218.02,191.13 217.37,191.86 216.53,192.34 215.69,192.82 214.73,193.01 213.78,193.20 212.82,193.07 211.85,192.94 210.98,192.51 210.11,192.08 209.42,191.40 208.73,190.72 208.30,189.85 207.86,188.98 207.73,188.02 207.59,187.06 207.77,186.10 207.95,185.15 208.43,184.30 208.90,183.45 209.62,182.80 210.34,182.15 211.23,181.76 212.12,181.37 213.09,181.29 214.06,181.21 215.00,181.44 215.95,181.67 216.77,182.19 217.59,182.71 218.20,183.47 218.81,184.22 219.15,185.13 219.49,186.04 219.49,186.04 219.49,186.04 219.85,188.54 220.21,191.05 219.71,193.67 219.22,196.30 217.91,198.14 216.61,199.98 214.72,201.34 212.83,202.70 210.64,203.37 208.46,204.04 205.90,204.22 203.35,204.39 200.75,204.30 198.15,204.21 195.25,204.03 192.35,203.85 187.93,203.05 183.51,202.25 181.09,201.83 178.68,201.41 176.35,200.65 174.02,199.89 172.03,199.02 170.03,198.15 167.73,197.55 165.43,196.94 162.52,196.16 159.61,195.39 157.05,194.34 154.49,193.28 151.71,192.05 148.94,190.81 145.73,189.26 142.53,187.71 139.97,186.17 137.40,184.63 134.05,182.47 130.70,180.31 127.99,178.01 125.28,175.72 122.80,173.23 120.32,170.73 117.70,167.85 115.08,164.97 112.80,162.12 110.53,159.27 107.60,155.92 104.66,152.57 101.10,148.04 97.53,143.50 94.06,138.81 90.59,134.13 86.24,128.01 81.90,121.88 77.65,115.59 73.41,109.31 68.91,102.18 64.41,95.04 59.25,86.86 54.09,78.69 49.03,70.25 43.96,61.82 40.28,55.03 36.60,48.24 32.91,40.92 29.21,33.59 26.13,26.78 23.05,19.97 20.19,13.95 17.34,7.93 15.34,2.82 13.35,-2.28 11.63,-6.04 9.91,-9.81 8.68,-12.85 7.44,-15.88 6.86,-18.66 6.28,-21.44 4.07,-21.51 1.86,-21.57 1.93,-18.31 2.00,-15.04 2.66,-11.44 3.33,-7.84 4.14,-4.41 4.95,-0.99 5.00,-0.38 5.05,0.22 4.95,0.82 4.85,1.42 4.61,1.98 4.36,2.54 4.00,3.03 3.63,3.51 3.15,3.90 2.68,4.28 2.13,4.54 1.58,4.80 0.98,4.92 0.38,5.04 -0.22,5.01 -0.83,4.98 -1.41,4.81 -2.00,4.64 -2.52,4.33 -3.05,4.03 -3.49,3.60 -3.93,3.18 -4.25,2.66 -4.57,2.14 -4.76,1.57 -4.95,0.99 -4.95,0.99 L -4.95,0.99 Z"></path></g><g transform="translate(521.2000122070312 161.19998168945312) rotate(0 -64 68.80000305175781)" stroke="none"><path fill="#1e1e1e" d="M 2.58,1.84 Q 2.58,1.84 0.28,5.06 -2.01,8.28 -4.12,11.78 -6.23,15.29 -7.73,18.78 -9.24,22.26 -11.65,26.44 -14.05,30.61 -16.41,35.25 -18.76,39.89 -21.44,44.49 -24.12,49.08 -26.89,53.36 -29.67,57.63 -32.70,61.99 -35.74,66.34 -38.68,70.08 -41.62,73.82 -44.67,77.88 -47.72,81.95 -50.91,85.80 -54.10,89.66 -56.82,92.90 -59.54,96.14 -61.50,98.60 -63.45,101.07 -65.65,103.55 -67.84,106.03 -69.55,108.22 -71.26,110.42 -73.72,114.15 -76.19,117.88 -77.81,119.57 -79.44,121.26 -81.05,122.73 -82.65,124.19 -84.78,125.52 -86.90,126.84 -88.75,128.00 -90.60,129.16 -92.96,130.12 -95.32,131.08 -97.34,132.02 -99.36,132.97 -101.82,133.92 -104.28,134.88 -106.92,135.59 -109.56,136.30 -113.32,137.89 -117.08,139.49 -119.45,140.30 -121.82,141.12 -124.47,142.31 -127.11,143.49 -128.08,143.48 -129.04,143.46 -129.95,143.14 -130.86,142.82 -131.62,142.23 -132.38,141.63 -132.91,140.83 -133.44,140.02 -133.69,139.09 -133.93,138.16 -133.86,137.19 -133.80,136.23 -133.43,135.34 -133.06,134.45 -132.42,133.72 -131.79,133.00 -130.96,132.51 -130.12,132.03 -129.18,131.83 -128.23,131.64 -127.28,131.76 -126.32,131.87 -125.45,132.29 -124.58,132.71 -123.89,133.38 -123.20,134.06 -122.76,134.91 -122.32,135.77 -122.18,136.73 -122.03,137.68 -122.20,138.63 -122.37,139.58 -122.84,140.42 -123.30,141.27 -124.01,141.92 -124.72,142.58 -125.60,142.97 -126.48,143.36 -127.44,143.45 -128.40,143.54 -129.34,143.32 -130.28,143.10 -131.10,142.59 -131.92,142.08 -132.53,141.34 -133.15,140.59 -133.49,139.69 -133.83,138.79 -133.87,137.83 -133.91,136.87 -133.64,135.94 -133.37,135.01 -132.82,134.22 -132.26,133.43 -131.49,132.86 -130.71,132.29 -129.79,131.99 -128.87,131.70 -128.88,131.70 -128.88,131.70 -128.77,132.06 -128.66,132.42 -126.15,131.16 -123.64,129.90 -120.51,128.96 -117.39,128.03 -114.81,126.97 -112.24,125.90 -110.14,125.41 -108.05,124.91 -105.86,124.10 -103.68,123.30 -99.69,121.81 -95.70,120.33 -93.71,119.24 -91.71,118.16 -88.66,116.36 -85.60,114.55 -82.71,111.98 -79.83,109.42 -78.30,107.51 -76.77,105.61 -74.71,103.51 -72.66,101.40 -70.33,99.17 -68.00,96.95 -65.81,94.83 -63.62,92.71 -60.91,89.49 -58.20,86.27 -55.10,82.51 -52.00,78.74 -48.93,74.62 -45.85,70.50 -43.02,66.88 -40.20,63.25 -37.24,58.96 -34.29,54.66 -31.62,50.48 -28.96,46.30 -26.41,41.82 -23.87,37.34 -21.52,32.54 -19.18,27.74 -17.01,23.77 -14.84,19.80 -13.15,16.03 -11.47,12.25 -9.32,8.42 -7.18,4.59 -4.88,1.37 -2.58,-1.84 -2.33,-2.13 -2.07,-2.41 -1.75,-2.62 -1.43,-2.84 -1.07,-2.97 -0.71,-3.10 -0.33,-3.14 0.05,-3.18 0.43,-3.13 0.81,-3.07 1.16,-2.93 1.52,-2.79 1.83,-2.57 2.14,-2.34 2.39,-2.05 2.64,-1.76 2.82,-1.42 2.99,-1.08 3.07,-0.70 3.16,-0.33 3.15,0.05 3.15,0.43 3.05,0.80 2.95,1.17 2.77,1.51 2.58,1.85 2.58,1.85 L 2.58,1.84 Z"></path></g></svg>